<svg id="Layer_1" data-name="Layer 1" xmlns="http://www.w3.org/2000/svg" width="18" height="18" viewBox="0 0 18 18"><defs><style>.cls-1{fill:none;}.cls-2{fill:#c93430;}.cls-3{fill:#fff;}</style></defs><title>wrong</title><rect class="cls-1" width="18" height="18"/><path class="cls-2" d="M15.37,0H2.63A2.63,2.63,0,0,0,0,2.63V15.37A2.63,2.63,0,0,0,2.63,18H15.37A2.63,2.63,0,0,0,18,15.37V2.63A2.63,2.63,0,0,0,15.37,0Z"/><path class="cls-3" d="M14,12.08a.4.4,0,0,1,0,.56L12.64,14a.4.4,0,0,1-.56,0L9,10.94,5.92,14a.4.4,0,0,1-.56,0L4,12.64a.4.4,0,0,1,0-.56L7.06,9,4,5.92a.4.4,0,0,1,0-.56L5.36,4a.4.4,0,0,1,.56,0L9,7.06,12.08,4a.4.4,0,0,1,.56,0L14,5.36a.4.4,0,0,1,0,.56L10.94,9Z"/></svg>