<svg id="Layer_1" data-name="Layer 1" xmlns="http://www.w3.org/2000/svg" width="18" height="18" viewBox="0 0 18 18"><defs><style>.cls-1{fill:none;}.cls-2{fill:#85a94e;}.cls-3{fill:#fff;}</style></defs><title>solved</title><rect class="cls-1" width="18" height="18"/><path class="cls-2" d="M15.37,0H2.63A2.63,2.63,0,0,0,0,2.63V15.37A2.63,2.63,0,0,0,2.63,18H15.37A2.63,2.63,0,0,0,18,15.37V2.63A2.63,2.63,0,0,0,15.37,0Z"/><path class="cls-3" d="M15.11,6.31,9.45,12,7.79,13.62a.38.38,0,0,1-.55,0L2.89,9.28a.39.39,0,0,1,0-.55L4.28,7.34a.39.39,0,0,1,.55,0L7.52,10l5.65-5.65a.38.38,0,0,1,.55,0l1.39,1.38A.39.39,0,0,1,15.11,6.31Z"/></svg>